<svg xmlns="http://www.w3.org/2000/svg" xmlns:xlink="http://www.w3.org/1999/xlink" width="1920" zoomAndPan="magnify" viewBox="0 0 1440 809.999993" height="1080" preserveAspectRatio="xMidYMid meet" version="1.0"><path fill="#fcd633" d="M 334.53125 79.015625 C 346.40625 81.054688 352.867188 83.683594 362.09375 91.316406 L 367.21875 95.847656 C 371.09375 99.085938 374.988281 102.324219 378.878906 105.5625 L 385.050781 110.792969 C 396.242188 120.09375 407.796875 128.929688 419.320312 137.808594 L 433.929688 149.164062 L 448.753906 160.671875 C 480.96875 185.695312 513.136719 210.765625 545.199219 236.003906 C 552.542969 241.78125 559.886719 247.558594 567.246094 253.335938 C 570.941406 256.238281 574.632812 259.144531 578.328125 262.0625 C 587.96875 269.648438 597.636719 277.175781 607.367188 284.640625 L 613.449219 289.335938 C 617.277344 292.300781 621.109375 295.234375 624.957031 298.15625 C 635.75 306.515625 644.523438 314.953125 652.382812 326.128906 C 655.453125 335.339844 655.972656 341.242188 656.03125 350.816406 L 656.09375 360.273438 L 656.121094 370.628906 L 656.183594 381.542969 C 656.246094 393.476562 656.289062 405.429688 656.320312 417.363281 L 656.351562 429.707031 C 656.410156 449.046875 656.457031 468.382812 656.488281 487.722656 C 656.519531 510.023438 656.59375 532.328125 656.730469 554.617188 C 656.835938 573.953125 656.867188 593.292969 656.898438 612.617188 C 656.898438 620.824219 656.945312 629.050781 657.003906 637.261719 C 657.082031 648.753906 657.082031 660.246094 657.050781 671.742188 L 657.171875 682.035156 C 657.019531 704.414062 657.019531 704.414062 652.960938 714.171875 C 647.457031 722.898438 641.894531 727.65625 633.289062 733.390625 C 625.214844 734.027344 617.492188 734.285156 609.417969 734.257812 L 601.984375 734.316406 C 593.746094 734.363281 585.488281 734.363281 577.25 734.363281 C 571.351562 734.394531 565.453125 734.410156 559.550781 734.4375 C 543.511719 734.515625 527.457031 734.546875 511.417969 734.558594 C 501.386719 734.558594 491.367188 734.589844 481.347656 734.605469 C 446.410156 734.683594 411.457031 734.726562 376.523438 734.742188 C 343.925781 734.757812 311.332031 734.847656 278.734375 734.984375 C 250.761719 735.09375 222.804688 735.136719 194.828125 735.136719 C 178.121094 735.152344 161.414062 735.167969 144.703125 735.257812 C 128.984375 735.351562 113.265625 735.351562 97.558594 735.304688 C 91.78125 735.289062 86.003906 735.320312 80.242188 735.367188 C 72.367188 735.425781 64.492188 735.394531 56.617188 735.351562 L 49.683594 735.472656 C 43.269531 735.367188 43.269531 735.367188 31.941406 733.390625 C 22.640625 725.515625 22.640625 725.515625 16.039062 717.472656 L 12.847656 714.292969 C 12.542969 709.339844 12.40625 704.367188 12.40625 699.410156 L 12.347656 689.648438 L 12.347656 678.839844 L 12.285156 667.546875 C 12.253906 657.28125 12.226562 647.019531 12.210938 636.757812 C 12.210938 630.34375 12.195312 623.941406 12.179688 617.527344 C 12.132812 597.472656 12.101562 577.421875 12.089844 557.367188 C 12.074219 534.230469 12.027344 511.074219 11.9375 487.921875 C 11.859375 470.027344 11.828125 452.148438 11.828125 434.253906 C 11.828125 423.566406 11.800781 412.878906 11.738281 402.191406 C 11.691406 390.253906 11.691406 378.335938 11.722656 366.402344 L 11.632812 355.683594 C 11.648438 352.429688 11.664062 349.175781 11.675781 345.816406 L 11.664062 337.273438 C 13.136719 327.40625 16.664062 321.507812 22.394531 313.402344 C 28.613281 307.898438 35.042969 302.671875 41.6875 297.699219 L 53.714844 288.46875 L 60.191406 283.542969 C 69.664062 276.324219 79.058594 268.996094 88.4375 261.652344 C 107.730469 246.601562 127.070312 231.640625 146.484375 216.757812 C 158.25 207.742188 169.925781 198.589844 181.480469 189.316406 C 194.722656 178.671875 208.117188 168.273438 221.601562 157.953125 C 239.664062 144.101562 257.601562 130.128906 275.527344 116.128906 C 280.105469 112.554688 284.710938 108.996094 289.316406 105.46875 C 293.800781 101.957031 298.210938 98.355469 302.511719 94.644531 C 312.820312 86.054688 320.847656 79.882812 334.53125 79.015625 M 327.839844 119.320312 C 320.832031 124.09375 314.066406 129.203125 307.5625 134.628906 L 295.503906 144.375 L 289.316406 149.421875 C 280.242188 156.796875 271.042969 164.003906 261.816406 171.222656 L 256.328125 175.527344 C 233.902344 193.148438 211.371094 210.644531 188.855469 228.144531 C 174.488281 239.304688 160.121094 250.460938 145.769531 261.636719 C 133.410156 271.261719 121.050781 280.851562 108.660156 290.429688 L 100.917969 296.4375 C 96.070312 300.191406 91.207031 303.945312 86.355469 307.703125 L 79.636719 312.902344 L 73.8125 317.402344 L 66.941406 322.949219 L 61.484375 326.433594 C 54.792969 331.175781 49.761719 335.585938 44.667969 342.03125 C 41.492188 353.675781 41.839844 364.910156 42.144531 376.921875 L 42.128906 387.457031 C 42.144531 398.921875 42.328125 410.382812 42.496094 421.847656 C 42.539062 429.8125 42.570312 437.78125 42.585938 445.730469 C 42.660156 464.539062 42.84375 483.328125 43.070312 502.121094 C 43.34375 525.625 43.453125 549.144531 43.574219 572.648438 C 43.816406 614.5625 44.195312 656.476562 44.667969 698.390625 C 56.011719 702.164062 64.886719 701.902344 76.867188 701.828125 L 83.890625 701.796875 C 91.691406 701.753906 99.492188 701.707031 107.289062 701.644531 L 124.027344 701.539062 C 139.203125 701.464844 154.375 701.355469 169.546875 701.25 C 185.386719 701.144531 201.246094 701.050781 217.085938 700.960938 C 247.113281 700.777344 277.125 700.582031 307.136719 700.382812 C 341.3125 700.15625 375.488281 699.941406 409.648438 699.730469 C 479.949219 699.304688 550.261719 698.847656 620.5625 698.390625 C 620.925781 652.203125 621.214844 606.019531 621.382812 559.832031 C 621.460938 538.378906 621.582031 516.941406 621.765625 495.492188 C 621.929688 474.800781 622.023438 454.109375 622.066406 433.417969 C 622.097656 425.511719 622.160156 417.605469 622.234375 409.714844 C 622.355469 398.664062 622.371094 387.609375 622.371094 376.558594 L 622.539062 366.628906 C 622.476562 358.144531 622.234375 350.363281 620.5625 342.03125 C 613.644531 332.238281 613.644531 332.238281 604.644531 326.128906 L 594.914062 318.148438 C 591.34375 315.363281 587.753906 312.582031 584.167969 309.816406 L 572.203125 300.511719 L 566.074219 295.769531 C 558.703125 290.019531 551.328125 284.242188 543.984375 278.453125 C 508.441406 250.433594 472.726562 222.640625 436.816406 195.078125 C 422.511719 184.085938 408.25 173.019531 394.066406 161.875 L 388.425781 157.464844 C 379.835938 150.730469 371.335938 143.886719 362.945312 136.910156 L 354.492188 129.855469 L 347.195312 123.652344 L 340.566406 119.320312 Z M 327.839844 119.320312 " fill-opacity="1" fill-rule="nonzero"/><path fill="#30b85b" d="M 535.363281 424.917969 C 541.019531 427.945312 541.019531 427.945312 547.375 437.492188 C 550.429688 461.328125 541.019531 482.675781 531.957031 504.398438 C 512.210938 550.34375 487.367188 590.890625 447.078125 621.828125 C 422.601562 638.476562 396.53125 651.792969 366.777344 654.714844 C 329.027344 656.902344 292.828125 656.707031 257.847656 641.121094 L 249.425781 637.625 C 215.21875 622.117188 188.367188 597.03125 166.15625 567.007812 C 140.859375 530.472656 124.574219 490.035156 120.347656 445.746094 C 121.035156 437.492188 121.035156 437.492188 124.804688 430.222656 C 130.582031 424.765625 130.582031 424.765625 137.984375 422.484375 C 146.484375 421.574219 146.484375 421.574219 153.660156 423.59375 L 160.972656 426.96875 L 169.226562 430.679688 L 177.910156 434.710938 C 205.230469 446.917969 232.351562 457.484375 261.023438 466.117188 L 270.890625 469.722656 C 292.3125 474.496094 313.382812 475.957031 334.578125 469.433594 C 344.457031 465.28125 354.035156 460.753906 363.628906 455.976562 C 387.089844 444.988281 410.058594 434.585938 435.023438 427.546875 L 441.425781 425.738281 C 473.304688 417.195312 503.757812 414.125 535.363281 424.917969 M 403.203125 477.460938 L 395.085938 480.410156 L 387.542969 483.238281 L 380.765625 485.777344 L 375.5625 488.390625 L 372.386719 494.761719 C 385.582031 494.945312 398.765625 495.050781 411.960938 495.15625 C 415.671875 495.21875 419.363281 495.261719 423.179688 495.308594 C 443.828125 495.429688 464.09375 495.460938 483.75 488.390625 C 491.824219 483.738281 496.324219 479.496094 502.828125 472.488281 C 505.871094 463.992188 505.871094 463.992188 506.023438 456.570312 C 470.066406 454.425781 436.574219 465.3125 403.203125 477.460938 M 168.757812 475.667969 C 169.804688 486.628906 171.796875 494.488281 176.90625 504.308594 C 189.796875 520.164062 202.265625 529.789062 221.375 537.453125 C 282.519531 559.011719 343.46875 563.769531 407.382812 552.03125 C 419.320312 548.519531 430.980469 544.277344 442.382812 539.304688 L 442.382812 536.113281 L 434.796875 535.597656 C 347.683594 529.257812 266.753906 511.894531 184.644531 481.183594 C 179.382812 479.253906 174.078125 477.445312 168.757812 475.667969 M 232.398438 580.660156 C 244.210938 595.164062 260.097656 602.050781 276.941406 609.300781 C 304.1875 618.53125 334.835938 621.859375 363.28125 616.871094 C 389.355469 611.324219 414.058594 602.492188 436.027344 587.027344 L 439.203125 580.660156 L 427.042969 583.457031 C 367.019531 596.46875 311.375 597.472656 251.476562 583.851562 C 245.121094 582.726562 238.765625 581.675781 232.398438 580.660156 " fill-opacity="1" fill-rule="nonzero"/><path fill="#31b85c" d="M 875.09375 310.226562 C 948.28125 310.226562 948.28125 310.226562 980.085938 319.757812 C 991.519531 328.941406 997.234375 334.855469 1003.558594 347.808594 C 1006.160156 361.050781 1007.453125 373.152344 1005.550781 386.574219 C 1000.824219 399.390625 993.996094 410.261719 986.457031 421.574219 L 1008.730469 488.390625 L 1011.90625 310.226562 C 1081.902344 310.226562 1081.902344 310.226562 1110.542969 316.582031 C 1120.898438 323.542969 1127.648438 329.136719 1134.003906 339.855469 C 1136.679688 351.335938 1137.53125 362.191406 1135.996094 373.851562 C 1131.601562 384.449219 1126.445312 392.960938 1120.089844 402.492188 L 1129.230469 409.242188 C 1136.511719 415.371094 1139.324219 418.699219 1143.550781 427.546875 C 1146.757812 443.558594 1146.835938 455.597656 1141.96875 471.289062 C 1135.035156 483.753906 1128.710938 490.003906 1116.898438 497.9375 C 1098.5625 504.660156 1081.933594 505.144531 1062.53125 504.917969 L 1053.425781 504.902344 C 1043.894531 504.871094 1034.363281 504.78125 1024.828125 504.703125 C 1018.335938 504.675781 1011.859375 504.644531 1005.367188 504.613281 C 989.511719 504.535156 973.671875 504.429688 957.8125 504.308594 C 949.222656 483.296875 941.789062 462.5 935.542969 440.667969 L 932.363281 504.308594 L 875.09375 504.308594 Z M 932.363281 364.304688 L 932.363281 392.945312 L 945.089844 389.769531 L 948.28125 386.574219 C 949.070312 378.761719 949.070312 378.761719 948.28125 370.671875 L 941.910156 364.304688 Z M 1069.175781 367.496094 L 1069.175781 380.222656 L 1085.09375 380.222656 L 1085.09375 367.496094 Z M 1069.175781 427.945312 L 1069.175781 447.039062 L 1091.449219 443.847656 L 1088.273438 427.945312 Z M 1069.175781 427.945312 " fill-opacity="1" fill-rule="nonzero"/><path fill="#35ba60" d="M 1301.449219 310.226562 C 1308.929688 309.984375 1316.425781 309.953125 1323.921875 310.027344 L 1336.355469 310.105469 L 1345.996094 310.226562 C 1348.914062 315.988281 1351.832031 321.75 1354.738281 327.527344 L 1359.664062 337.257812 C 1366.03125 350.363281 1371.886719 363.710938 1377.800781 377.027344 L 1380.992188 310.226562 L 1428.714844 310.226562 L 1428.714844 504.308594 L 1380.992188 504.308594 C 1369.789062 482.171875 1359.253906 460.191406 1349.171875 437.492188 L 1345.996094 504.308594 L 1298.257812 504.308594 C 1298.195312 479.46875 1298.136719 454.640625 1298.105469 429.796875 C 1298.089844 418.257812 1298.058594 406.734375 1298.027344 395.195312 C 1297.984375 384.082031 1297.96875 372.96875 1297.96875 361.839844 C 1297.953125 355.515625 1297.9375 349.191406 1297.90625 342.867188 L 1297.90625 331.28125 L 1297.878906 321.035156 L 1298.257812 313.402344 Z M 1301.449219 310.226562 " fill-opacity="1" fill-rule="nonzero"/><path fill="#30b85c" d="M 738.28125 310.226562 L 795.550781 310.226562 L 798.726562 443.847656 L 808.277344 443.847656 L 811.46875 310.226562 L 868.738281 310.226562 C 868.964844 331.554688 869.148438 352.902344 869.253906 374.246094 C 869.300781 381.5 869.363281 388.75 869.453125 396.015625 C 869.574219 406.460938 869.621094 416.90625 869.664062 427.351562 C 869.710938 430.589844 869.757812 433.8125 869.816406 437.140625 C 869.816406 455.703125 868.238281 468.855469 859.191406 485.214844 C 850.90625 494.09375 844.914062 499.230469 833.726562 503.625 C 814.523438 508.808594 795.898438 507.925781 776.457031 504.308594 C 764.292969 500.023438 756.875 494.898438 748.421875 485.410156 C 742.113281 476.578125 740.058594 473.097656 738.28125 462.941406 C 738.023438 457.789062 737.902344 452.632812 737.914062 447.480469 L 737.914062 438.207031 L 737.976562 428.292969 L 737.992188 418.078125 C 738.007812 407.3125 738.039062 396.550781 738.082031 385.785156 C 738.097656 378.488281 738.113281 371.191406 738.128906 363.894531 C 738.160156 346 738.21875 328.105469 738.28125 310.226562 " fill-opacity="1" fill-rule="nonzero"/><path fill="#30b85b" d="M 1186.910156 310.226562 L 1244.179688 310.226562 C 1255.476562 345.453125 1264.886719 381.074219 1274.175781 416.875 C 1276.820312 427.046875 1279.464844 437.21875 1282.125 447.375 C 1283.8125 453.835938 1285.5 460.296875 1287.175781 466.757812 L 1289.589844 475.96875 L 1291.78125 484.4375 L 1293.726562 491.902344 C 1295.078125 497.9375 1295.078125 497.9375 1295.078125 504.308594 L 1237.808594 504.308594 L 1234.632812 485.214844 L 1199.632812 488.390625 L 1193.265625 504.308594 L 1139.171875 504.308594 C 1141.148438 488.589844 1142.835938 475.378906 1146.804688 460.476562 L 1149.511719 450.261719 L 1152.414062 439.484375 L 1155.394531 428.246094 C 1158.523438 416.464844 1161.671875 404.714844 1164.835938 392.945312 L 1171.21875 368.925781 C 1176.433594 349.34375 1181.664062 329.777344 1186.910156 310.226562 M 1215.535156 408.847656 C 1210.566406 422.835938 1210.566406 422.835938 1209.183594 437.492188 L 1221.90625 437.492188 L 1218.714844 408.847656 Z M 1215.535156 408.847656 " fill-opacity="1" fill-rule="nonzero"/><path fill="#fcd635" d="M 754.199219 542.484375 L 795.550781 542.484375 L 800.203125 552.472656 L 806.285156 565.546875 L 809.339844 572.128906 L 812.335938 578.53125 L 815.054688 584.382812 C 818.019531 590.617188 821.105469 596.773438 824.191406 602.933594 L 827.371094 542.484375 L 868.738281 542.484375 L 868.738281 717.472656 L 827.371094 717.472656 C 823.78125 710.386719 820.210938 703.300781 816.636719 696.203125 L 813.582031 690.167969 C 808.078125 679.222656 803.289062 668.425781 798.726562 657.023438 L 795.550781 717.472656 L 754.199219 717.472656 Z M 754.199219 542.484375 " fill-opacity="1" fill-rule="nonzero"/><path fill="#fcd83c" d="M 875.09375 542.484375 L 976.910156 542.484375 L 976.910156 593.398438 L 929.1875 596.578125 L 929.1875 602.933594 L 967.359375 606.125 L 967.359375 657.023438 L 926.007812 657.023438 L 926.007812 666.570312 L 976.910156 666.570312 L 976.910156 717.472656 L 875.09375 717.472656 Z M 875.09375 542.484375 " fill-opacity="1" fill-rule="nonzero"/><path fill="#fcd737" d="M 1031.730469 542.179688 L 1039.46875 542.210938 L 1047.511719 542.285156 L 1055.644531 542.332031 C 1062.289062 542.378906 1068.917969 542.421875 1075.546875 542.484375 C 1079.164062 553.371094 1079.042969 561.851562 1078.921875 573.316406 L 1078.832031 584.671875 L 1078.722656 593.398438 L 1053.273438 596.578125 L 1050.097656 609.300781 L 1056.132812 614.425781 L 1064.007812 621.234375 L 1071.835938 627.941406 C 1078.496094 634.523438 1082.007812 638.734375 1085.09375 647.476562 C 1086.949219 663.484375 1086.585938 678.15625 1081.308594 693.421875 C 1074.90625 702.464844 1068.886719 708.199219 1059.628906 714.292969 C 1050.402344 717.242188 1042.101562 717.851562 1032.445312 717.792969 L 1024.296875 717.761719 L 1015.890625 717.667969 L 1007.332031 717.640625 C 1000.367188 717.59375 993.402344 717.53125 986.457031 717.472656 L 986.457031 666.570312 L 1024.632812 663.394531 C 1023.1875 654.699219 1023.1875 654.699219 1018.277344 644.300781 C 1012.089844 637.457031 1005.582031 631.210938 998.785156 624.992188 C 992.703125 618.726562 989.453125 614.273438 986.457031 606.125 C 984.675781 590.632812 984.402344 576.050781 990.441406 561.578125 C 996.125 555.058594 1001.386719 550.253906 1008.730469 545.660156 C 1017.53125 542.726562 1022.671875 542.105469 1031.730469 542.179688 " fill-opacity="1" fill-rule="nonzero"/><path fill="#fcd738" d="M 1085.09375 542.484375 L 1196.441406 542.484375 L 1196.441406 593.398438 L 1164.636719 593.398438 L 1164.636719 717.472656 L 1113.722656 717.472656 L 1113.722656 593.398438 L 1085.09375 593.398438 Z M 1085.09375 542.484375 " fill-opacity="1" fill-rule="nonzero"/></svg>