<svg xmlns="http://www.w3.org/2000/svg" xmlns:xlink="http://www.w3.org/1999/xlink" width="500" zoomAndPan="magnify" viewBox="0 0 375 374.999991" height="500" preserveAspectRatio="xMidYMid meet" version="1.0"><path fill="#fed634" d="M 188.359375 4.917969 L 190.597656 4.851562 C 194.738281 5.359375 197.671875 7.34375 200.992188 9.773438 C 201.953125 10.539062 202.914062 11.3125 203.867188 12.089844 L 207.160156 14.722656 L 208.921875 16.128906 C 212.179688 18.722656 215.476562 21.269531 218.765625 23.820312 C 226.101562 29.523438 233.414062 35.25 240.710938 41 C 247.707031 46.507812 254.722656 51.988281 261.753906 57.449219 C 266.316406 60.996094 270.863281 64.558594 275.402344 68.132812 C 279.640625 71.464844 283.890625 74.773438 288.148438 78.082031 C 294.484375 83.003906 300.804688 87.945312 307.105469 92.910156 C 309.679688 94.9375 312.257812 96.960938 314.832031 98.984375 L 319.503906 102.652344 L 336.625 116.105469 L 341.28125 119.765625 C 344.519531 122.3125 347.761719 124.855469 351.007812 127.394531 C 352.058594 128.214844 353.105469 129.035156 354.15625 129.855469 C 355.582031 130.976562 357 132.101562 358.417969 133.230469 L 359.894531 134.375 C 362.507812 136.457031 364.433594 138.230469 365.8125 141.289062 L 366.636719 143.046875 C 367.804688 146.054688 368.316406 148.777344 368.324219 152 L 368.339844 154.191406 L 368.339844 156.585938 L 368.351562 159.140625 C 368.363281 161.972656 368.371094 164.804688 368.375 167.640625 L 368.398438 173.722656 C 368.421875 180.390625 368.433594 187.054688 368.445312 193.722656 L 368.460938 200.605469 C 368.488281 212.632812 368.503906 224.65625 368.515625 236.679688 L 368.515625 238.542969 C 368.527344 248.507812 368.558594 258.472656 368.59375 268.4375 C 368.632812 278.675781 368.652344 288.914062 368.65625 299.152344 C 368.660156 304.898438 368.671875 310.644531 368.699219 316.390625 C 368.726562 321.796875 368.734375 327.207031 368.722656 332.613281 C 368.722656 334.59375 368.730469 336.574219 368.746094 338.554688 C 368.765625 341.269531 368.757812 343.976562 368.746094 346.691406 L 368.78125 349.046875 C 368.714844 354.238281 367.421875 357.972656 365.015625 362.5625 C 363.035156 365.609375 360.601562 367.910156 357.53125 369.835938 C 354.035156 371.503906 351.253906 371.839844 347.398438 371.839844 L 343.898438 371.855469 L 340.058594 371.847656 L 335.980469 371.855469 C 332.238281 371.867188 328.496094 371.863281 324.757812 371.859375 C 320.722656 371.859375 316.691406 371.867188 312.65625 371.875 C 304.753906 371.882812 296.851562 371.886719 288.949219 371.882812 C 279.746094 371.882812 270.546875 371.886719 261.347656 371.894531 C 243.9375 371.902344 226.527344 371.902344 209.117188 371.894531 C 193.1875 371.890625 177.253906 371.902344 161.324219 371.917969 C 144.96875 371.933594 128.617188 371.941406 112.265625 371.9375 C 103.082031 371.9375 93.898438 371.9375 84.714844 371.953125 C 76.898438 371.960938 69.078125 371.964844 61.261719 371.953125 C 57.273438 371.945312 53.285156 371.949219 49.292969 371.957031 C 45.640625 371.964844 41.992188 371.964844 38.339844 371.953125 C 37.015625 371.949219 35.695312 371.953125 34.375 371.957031 C 23.28125 372.015625 23.28125 372.015625 19.3125 370.386719 C 15.265625 368.019531 12.308594 365.636719 9.605469 361.777344 C 7.414062 357.78125 7.460938 354.050781 7.503906 349.574219 L 7.488281 346.96875 C 7.472656 344.089844 7.484375 341.214844 7.496094 338.339844 C 7.492188 336.277344 7.484375 334.210938 7.476562 332.144531 C 7.460938 326.542969 7.464844 320.941406 7.476562 315.335938 C 7.484375 310.066406 7.480469 304.792969 7.476562 299.519531 C 7.464844 288.441406 7.476562 277.359375 7.496094 266.28125 C 7.511719 256.785156 7.507812 247.289062 7.492188 237.792969 C 7.472656 226.753906 7.464844 215.714844 7.476562 204.675781 C 7.480469 198.835938 7.484375 193 7.472656 187.160156 C 7.460938 181.667969 7.46875 176.175781 7.488281 170.683594 C 7.492188 168.671875 7.492188 166.65625 7.484375 164.644531 C 7.476562 161.890625 7.484375 159.136719 7.503906 156.386719 L 7.480469 153.984375 C 7.546875 148.488281 8.824219 144.253906 11.515625 139.457031 C 16.3125 133.160156 23.101562 128.542969 29.390625 123.835938 C 32.558594 121.441406 35.679688 118.992188 38.808594 116.550781 L 47.09375 110.101562 C 62.398438 98.1875 62.398438 98.1875 68.886719 93.203125 C 78.769531 85.605469 88.605469 77.953125 98.394531 70.238281 C 102.628906 66.90625 106.882812 63.597656 111.136719 60.289062 C 117.976562 54.976562 124.792969 49.640625 131.597656 44.28125 C 141.058594 36.832031 150.546875 29.417969 160.058594 22.042969 L 161.742188 20.738281 C 181.972656 5.039062 181.972656 5.039062 188.359375 4.917969 M 187.636719 26.488281 C 185.082031 27.808594 185.082031 27.808594 182.578125 30.046875 C 181.554688 30.882812 180.527344 31.71875 179.503906 32.550781 L 177.839844 33.9375 C 174.65625 36.546875 171.378906 39.039062 168.121094 41.554688 C 159.628906 48.160156 151.144531 54.769531 142.761719 61.511719 C 136.808594 66.289062 130.792969 70.988281 124.714844 75.605469 C 120.273438 78.992188 115.859375 82.414062 111.476562 85.878906 C 107.222656 89.222656 102.960938 92.554688 98.683594 95.871094 C 93.929688 99.5625 89.183594 103.265625 84.453125 106.988281 C 75.085938 114.367188 65.671875 121.6875 56.210938 128.949219 C 41.347656 139.839844 41.347656 139.839844 27.523438 151.910156 C 27.351562 154.53125 27.292969 157.066406 27.3125 159.6875 L 27.304688 162.15625 C 27.304688 164.90625 27.3125 167.652344 27.324219 170.402344 L 27.324219 176.289062 C 27.320312 181.636719 27.332031 186.980469 27.34375 192.324219 C 27.355469 197.902344 27.355469 203.480469 27.359375 209.0625 C 27.363281 218.429688 27.375 227.800781 27.390625 237.171875 C 27.40625 246.824219 27.417969 256.472656 27.425781 266.125 L 27.429688 267.929688 L 27.433594 276.878906 C 27.453125 301.636719 27.484375 326.398438 27.523438 351.15625 C 73.121094 351.191406 118.710938 351.210938 164.289062 351.207031 L 167.191406 351.207031 C 182.714844 351.210938 198.238281 351.21875 213.761719 351.226562 C 229.679688 351.234375 245.59375 351.238281 261.511719 351.242188 C 271.339844 351.242188 281.171875 351.246094 291 351.253906 C 297.730469 351.257812 304.464844 351.257812 311.195312 351.257812 C 315.082031 351.257812 318.972656 351.257812 322.863281 351.261719 C 326.417969 351.265625 329.972656 351.265625 333.527344 351.265625 C 334.816406 351.265625 336.109375 351.265625 337.402344 351.269531 C 339.144531 351.269531 340.890625 351.269531 342.632812 351.265625 L 345.582031 351.265625 L 347.746094 351.15625 L 348.632812 350.265625 C 348.730469 347.734375 348.765625 345.226562 348.765625 342.691406 L 348.773438 340.257812 C 348.785156 337.539062 348.789062 334.824219 348.792969 332.109375 L 348.808594 326.292969 C 348.824219 321.011719 348.835938 315.730469 348.839844 310.449219 C 348.847656 307.152344 348.851562 303.855469 348.859375 300.558594 C 348.878906 288.46875 348.890625 276.382812 348.898438 264.292969 C 348.90625 255.347656 348.925781 246.398438 348.953125 237.453125 C 348.984375 227.070312 349 216.6875 349.003906 206.304688 C 349.007812 200.808594 349.015625 195.308594 349.039062 189.8125 C 349.058594 184.640625 349.0625 179.46875 349.054688 174.296875 C 349.054688 172.394531 349.058594 170.496094 349.070312 168.597656 C 349.085938 166.003906 349.078125 163.414062 349.070312 160.824219 L 349.097656 158.535156 C 349.078125 156.5625 349.003906 154.738281 348.632812 152.796875 C 346.226562 149.003906 342.953125 146.484375 339.40625 143.792969 L 336.035156 141.191406 L 334.308594 139.863281 C 331.730469 137.878906 329.175781 135.859375 326.621094 133.839844 C 323.199219 131.148438 319.769531 128.46875 316.328125 125.804688 C 309.800781 120.75 303.3125 115.671875 296.933594 110.4375 C 291.71875 106.160156 286.390625 102.070312 280.972656 98.050781 C 276.292969 94.570312 271.730469 90.960938 267.1875 87.296875 C 263.664062 84.457031 260.109375 81.664062 256.515625 78.914062 C 252.601562 75.921875 248.710938 72.902344 244.839844 69.851562 C 240.089844 66.109375 235.328125 62.390625 230.554688 58.679688 L 228.515625 57.09375 C 225.097656 54.433594 221.671875 51.78125 218.246094 49.128906 L 214.207031 46.003906 L 212.21875 44.464844 C 208.875 41.871094 205.570312 39.230469 202.300781 36.542969 L 200.351562 34.933594 C 199.136719 33.929688 197.925781 32.917969 196.71875 31.902344 C 194.476562 30.042969 192.25 28.375 189.773438 26.835938 Z M 187.636719 26.488281 " fill-opacity="1" fill-rule="nonzero"/><path fill="#3abd66" d="M 302.257812 198.90625 C 304.160156 199.941406 304.160156 199.941406 306.492188 202.054688 C 308.492188 207.320312 308.339844 212.175781 307.714844 217.730469 C 302.382812 242.605469 288.925781 269.78125 272.136719 288.890625 L 270.257812 291.125 C 258.957031 304.261719 244.695312 314.566406 228.445312 320.636719 C 209.074219 327.324219 188.132812 329.878906 167.761719 326.09375 C 164.558594 325.378906 161.421875 324.527344 158.28125 323.582031 L 156.527344 323.09375 C 136.589844 317.480469 120.265625 306.234375 105.875 291.609375 C 96.875 281.753906 89.671875 270.464844 83.5625 258.648438 C 83.277344 258.105469 82.992188 257.558594 82.703125 256.996094 C 75.3125 242.613281 68.503906 224.59375 69.082031 208.25 C 69.441406 205.234375 70.207031 203.28125 72 200.832031 C 74.484375 198.789062 76.59375 197.519531 79.644531 196.515625 C 84.089844 196.324219 87.304688 198.042969 91.289062 199.886719 L 96.375 202.140625 C 98.035156 202.890625 99.691406 203.636719 101.351562 204.390625 C 123.722656 214.484375 152.214844 227.210938 177.203125 226.210938 C 183.242188 225.347656 188.410156 222.988281 193.859375 220.398438 C 195.511719 219.636719 197.164062 218.875 198.820312 218.117188 C 201.558594 216.859375 204.300781 215.597656 207.039062 214.335938 C 234.613281 201.65625 272.1875 185.765625 302.253906 198.90625 M 239.671875 224.179688 L 235.816406 225.488281 C 227.027344 228.492188 218.355469 231.726562 209.871094 235.523438 L 209.871094 236.410156 C 217.691406 237.292969 225.46875 237.515625 233.332031 237.523438 L 235.21875 237.527344 C 256.136719 237.640625 256.136719 237.640625 275.695312 231.074219 C 278.320312 229.703125 278.320312 229.703125 280.144531 227.515625 C 282.070312 224.019531 283.699219 220.875 283.699219 216.84375 C 281.644531 216.769531 279.585938 216.714844 277.53125 216.675781 L 274.058594 216.582031 C 262.167969 216.917969 250.816406 220.320312 239.671875 224.179688 M 95.125 226.625 C 95.921875 233.164062 98.769531 238.886719 102.242188 244.417969 C 108.214844 252.042969 115.804688 256.464844 124.621094 260.121094 C 139.257812 265.957031 154.230469 269.222656 169.84375 271.101562 L 171.953125 271.359375 C 197.632812 274.234375 224.921875 271.800781 249.011719 262.207031 L 249.011719 260.429688 L 247.378906 260.390625 C 212.882812 259.476562 179.789062 254.199219 146.71875 244.417969 L 143.324219 243.417969 C 127.769531 238.824219 112.65625 233.636719 97.707031 227.300781 C 96.183594 226.574219 96.183594 226.574219 95.125 226.625 M 131.597656 285.332031 C 134.886719 288.902344 138.207031 291.367188 142.4375 293.730469 L 144.300781 294.769531 C 154.34375 300.167969 165.59375 303.824219 176.960938 304.902344 L 178.855469 305.09375 C 195.425781 306.664062 211.851562 304.957031 227.199219 298.203125 C 234.316406 294.789062 240.789062 290.765625 247.230469 286.222656 L 244.5625 285.332031 C 242.726562 285.917969 240.914062 286.582031 239.113281 287.28125 C 213.816406 296.089844 182.335938 296.335938 156.136719 291.367188 C 149.691406 289.996094 143.347656 288.21875 137.082031 286.183594 C 134.328125 285.207031 134.328125 285.207031 131.597656 285.332031 " fill-opacity="1" fill-rule="nonzero"/><path fill="#4dc748" d="M 306.828125 214.175781 C 307.375 215.578125 307.375 215.578125 307.71875 217.730469 C 302.464844 242.558594 288.902344 269.847656 272.136719 288.890625 L 269.980469 291.40625 C 264.160156 298.074219 264.160156 298.074219 260.574219 299.566406 L 262.742188 297.066406 C 263.800781 295.824219 264.855469 294.582031 265.910156 293.339844 L 267.765625 291.183594 C 272.722656 285.308594 276.976562 279.199219 280.976562 272.652344 C 281.851562 271.222656 282.738281 269.800781 283.632812 268.382812 C 292.265625 254.082031 299.042969 238.070312 304.160156 222.179688 L 305.773438 217.398438 Z M 306.828125 214.175781 " fill-opacity="1" fill-rule="nonzero"/><path fill="#62ce62" d="M 82.265625 196.527344 C 86.59375 197.578125 90.476562 199.371094 94.515625 201.222656 L 96.992188 202.320312 C 101.476562 204.351562 101.476562 204.351562 103.132812 205.277344 L 104.023438 207.058594 C 100.734375 206.5625 97.925781 205.527344 94.890625 204.191406 C 89.582031 201.871094 85.050781 200.226562 79.160156 200.46875 C 77.015625 200.894531 75.589844 201.363281 73.777344 202.609375 C 71.605469 206.621094 71.753906 210.34375 71.820312 214.800781 C 72.101562 219.402344 72.882812 223.886719 73.777344 228.40625 L 72 228.40625 C 68.414062 213.789062 68.414062 213.789062 69.332031 206.167969 C 70.332031 203.109375 70.332031 203.109375 72 200.832031 C 75.261719 198.316406 78.023438 196.257812 82.265625 196.527344 " fill-opacity="1" fill-rule="nonzero"/><path fill="#4dc747" d="M 243.671875 311.128906 L 245.453125 312.019531 C 237.542969 317.570312 228.75 320.582031 219.65625 323.582031 L 217.882812 324.203125 C 208.675781 327.351562 199.378906 327.484375 189.746094 327.53125 L 187.867188 327.546875 C 178.871094 327.597656 170.605469 326.546875 161.839844 324.472656 L 161.839844 323.582031 C 172.039062 324.394531 172.039062 324.394531 176.238281 324.972656 C 195.695312 327.09375 214.941406 323.804688 233 316.464844 C 236.003906 315.105469 238.945312 313.613281 241.820312 311.992188 Z M 243.671875 311.128906 " fill-opacity="1" fill-rule="nonzero"/><path fill="#7ad46c" d="M 272.136719 231.964844 L 273.917969 232.851562 C 270.300781 235.359375 266.789062 236.273438 262.519531 237.023438 L 260.652344 237.371094 C 259.144531 237.652344 257.636719 237.921875 256.125 238.191406 L 256.125 239.078125 C 224.203125 239.445312 224.203125 239.445312 211.652344 237.300781 L 211.652344 236.410156 L 214.703125 236.453125 C 242.613281 237.65625 242.613281 237.65625 269.820312 232.707031 Z M 272.136719 231.964844 " fill-opacity="1" fill-rule="nonzero"/><path fill="#50c446" d="M 83.5625 255.980469 C 86.050781 258.957031 88.074219 261.933594 89.957031 265.320312 C 95.652344 275.191406 102.207031 283.925781 109.714844 292.453125 C 111.472656 294.480469 113.128906 296.5 114.695312 298.675781 C 111.105469 297.261719 108.796875 294.734375 106.246094 291.949219 L 104.84375 290.421875 C 96.460938 281.042969 88.621094 270.222656 83.5625 258.648438 Z M 83.5625 255.980469 " fill-opacity="1" fill-rule="nonzero"/><path fill="#4bc241" d="M 94.238281 225.738281 L 96.015625 226.625 L 96.402344 228.96875 C 97.460938 235.265625 100.933594 241.523438 104.78125 246.589844 C 109.199219 251.242188 114.53125 254.523438 120.03125 257.757812 L 118.253906 258.648438 C 112.074219 256.257812 106.707031 251.894531 102.242188 247.085938 C 98.457031 241.972656 95.667969 236.402344 94.238281 230.183594 C 94.070312 227.460938 94.070312 227.460938 94.238281 225.738281 " fill-opacity="1" fill-rule="nonzero"/><path fill="#68cf5d" d="M 248.121094 236.410156 L 257.015625 236.410156 L 256.125 239.078125 L 249.011719 239.078125 Z M 248.121094 236.410156 " fill-opacity="1" fill-rule="nonzero"/></svg>