<svg xmlns="http://www.w3.org/2000/svg" xmlns:xlink="http://www.w3.org/1999/xlink" width="500" zoomAndPan="magnify" viewBox="0 0 375 374.999991" height="500" preserveAspectRatio="xMidYMid meet" version="1.0"><path fill="#fcd633" d="M 89.808594 113.515625 C 92.859375 114.039062 94.519531 114.714844 96.890625 116.675781 L 98.207031 117.839844 C 99.203125 118.671875 100.203125 119.503906 101.203125 120.335938 L 102.789062 121.679688 C 105.664062 124.070312 108.632812 126.339844 111.59375 128.621094 L 115.347656 131.539062 L 119.15625 134.496094 C 127.433594 140.925781 135.699219 147.367188 143.9375 153.851562 C 145.824219 155.335938 147.710938 156.820312 149.601562 158.304688 C 150.550781 159.050781 151.5 159.796875 152.449219 160.546875 C 154.925781 162.496094 157.410156 164.429688 159.910156 166.347656 L 161.472656 167.554688 C 162.457031 168.316406 163.441406 169.070312 164.429688 169.820312 C 167.203125 171.96875 169.457031 174.136719 171.476562 177.007812 C 172.265625 179.375 172.398438 180.890625 172.414062 183.351562 L 172.429688 185.78125 L 172.4375 188.441406 L 172.453125 191.246094 C 172.46875 194.3125 172.480469 197.382812 172.488281 200.449219 L 172.496094 203.621094 C 172.511719 208.589844 172.523438 213.558594 172.53125 218.527344 C 172.539062 224.257812 172.558594 229.988281 172.59375 235.714844 C 172.621094 240.683594 172.628906 245.652344 172.636719 250.617188 C 172.636719 252.726562 172.648438 254.839844 172.664062 256.949219 C 172.683594 259.902344 172.683594 262.855469 172.675781 265.808594 L 172.707031 268.453125 C 172.667969 274.203125 172.667969 274.203125 171.625 276.710938 C 170.210938 278.953125 168.78125 280.175781 166.570312 281.648438 C 164.496094 281.8125 162.511719 281.878906 160.4375 281.871094 L 158.527344 281.886719 C 156.410156 281.898438 154.289062 281.898438 152.171875 281.898438 C 150.65625 281.90625 149.140625 281.910156 147.625 281.917969 C 143.503906 281.9375 139.378906 281.945312 135.257812 281.949219 C 132.679688 281.949219 130.105469 281.957031 127.53125 281.960938 C 118.554688 281.980469 109.574219 281.992188 100.597656 281.996094 C 92.222656 282 83.847656 282.023438 75.472656 282.058594 C 68.285156 282.085938 61.101562 282.097656 53.914062 282.097656 C 49.621094 282.101562 45.328125 282.105469 41.035156 282.128906 C 36.996094 282.152344 32.957031 282.152344 28.921875 282.140625 C 27.4375 282.136719 25.953125 282.144531 24.472656 282.15625 C 22.449219 282.171875 20.425781 282.164062 18.402344 282.152344 L 16.621094 282.183594 C 14.972656 282.15625 14.972656 282.15625 12.0625 281.648438 C 9.671875 279.625 9.671875 279.625 7.976562 277.558594 L 7.15625 276.742188 C 7.078125 275.46875 7.042969 274.191406 7.042969 272.917969 L 7.027344 270.410156 L 7.027344 267.632812 L 7.011719 264.730469 C 7.003906 262.09375 6.996094 259.457031 6.992188 256.820312 C 6.992188 255.171875 6.988281 253.527344 6.984375 251.878906 C 6.972656 246.726562 6.964844 241.574219 6.960938 236.421875 C 6.957031 230.476562 6.945312 224.527344 6.921875 218.578125 C 6.902344 213.980469 6.894531 209.386719 6.894531 204.789062 C 6.894531 202.042969 6.886719 199.296875 6.871094 196.550781 C 6.859375 193.484375 6.859375 190.421875 6.867188 187.355469 L 6.84375 184.601562 C 6.847656 183.765625 6.851562 182.929688 6.855469 182.066406 L 6.851562 179.871094 C 7.230469 177.335938 8.136719 175.820312 9.609375 173.738281 C 11.207031 172.324219 12.859375 170.980469 14.566406 169.703125 L 17.65625 167.332031 L 19.320312 166.066406 C 21.753906 164.210938 24.167969 162.328125 26.578125 160.441406 C 31.535156 156.574219 36.503906 152.730469 41.492188 148.90625 C 44.515625 146.589844 47.515625 144.238281 50.484375 141.855469 C 53.886719 139.121094 57.328125 136.449219 60.792969 133.796875 C 65.433594 130.238281 70.042969 126.648438 74.648438 123.050781 C 75.824219 122.132812 77.007812 121.21875 78.191406 120.3125 C 79.34375 119.410156 80.476562 118.484375 81.582031 117.53125 C 84.230469 115.324219 86.292969 113.738281 89.808594 113.515625 M 88.089844 123.871094 C 86.289062 125.097656 84.550781 126.410156 82.878906 127.804688 L 79.78125 130.308594 L 78.191406 131.605469 C 75.859375 133.5 73.496094 135.351562 71.125 137.207031 L 69.714844 138.3125 C 63.953125 142.839844 58.164062 147.335938 52.378906 151.832031 C 48.6875 154.699219 44.996094 157.566406 41.308594 160.4375 C 38.132812 162.910156 34.957031 165.375 31.773438 167.835938 L 29.785156 169.378906 C 28.539062 170.34375 27.289062 171.308594 26.042969 172.273438 L 24.316406 173.609375 L 22.820312 174.765625 L 21.054688 176.191406 L 19.652344 177.085938 C 17.933594 178.304688 16.640625 179.4375 15.332031 181.09375 C 14.515625 184.085938 14.605469 186.972656 14.683594 190.058594 L 14.679688 192.765625 C 14.683594 195.710938 14.730469 198.65625 14.773438 201.601562 C 14.785156 203.648438 14.792969 205.695312 14.796875 207.738281 C 14.816406 212.570312 14.863281 217.398438 14.921875 222.226562 C 14.992188 228.265625 15.019531 234.308594 15.050781 240.347656 C 15.113281 251.117188 15.210938 261.886719 15.332031 272.65625 C 18.246094 273.625 20.527344 273.558594 23.605469 273.539062 L 25.410156 273.53125 C 27.414062 273.519531 29.417969 273.507812 31.421875 273.492188 L 35.722656 273.464844 C 39.621094 273.445312 43.519531 273.417969 47.417969 273.390625 C 51.488281 273.363281 55.5625 273.339844 59.632812 273.316406 C 67.347656 273.269531 75.058594 273.21875 82.769531 273.167969 C 91.550781 273.109375 100.332031 273.054688 109.109375 273 C 127.171875 272.890625 145.238281 272.773438 163.300781 272.65625 C 163.394531 260.789062 163.46875 248.921875 163.511719 237.054688 C 163.53125 231.542969 163.5625 226.035156 163.609375 220.523438 C 163.652344 215.207031 163.675781 209.890625 163.6875 204.574219 C 163.695312 202.542969 163.710938 200.511719 163.730469 198.484375 C 163.761719 195.644531 163.765625 192.804688 163.765625 189.964844 L 163.808594 187.414062 C 163.792969 185.234375 163.730469 183.234375 163.300781 181.09375 C 161.523438 178.578125 161.523438 178.578125 159.210938 177.007812 L 156.710938 174.957031 C 155.792969 174.242188 154.871094 173.527344 153.949219 172.816406 L 150.875 170.425781 L 149.300781 169.207031 C 147.40625 167.730469 145.511719 166.246094 143.625 164.757812 C 134.492188 157.558594 125.316406 150.417969 116.089844 143.335938 C 112.414062 140.511719 108.75 137.667969 105.105469 134.804688 L 103.65625 133.671875 C 101.449219 131.941406 99.265625 130.183594 97.109375 128.390625 L 94.9375 126.578125 L 93.0625 124.984375 L 91.359375 123.871094 Z M 88.089844 123.871094 " fill-opacity="1" fill-rule="nonzero"/><path fill="#30b85b" d="M 141.410156 202.390625 C 142.863281 203.167969 142.863281 203.167969 144.496094 205.621094 C 145.28125 211.746094 142.863281 217.230469 140.535156 222.8125 C 135.460938 234.617188 129.078125 245.035156 118.726562 252.984375 C 112.4375 257.261719 105.738281 260.683594 98.09375 261.433594 C 88.394531 261.996094 79.09375 261.945312 70.105469 257.941406 L 67.941406 257.042969 C 59.152344 253.058594 52.253906 246.613281 46.546875 238.898438 C 40.046875 229.511719 35.863281 219.121094 34.777344 207.742188 C 34.953125 205.621094 34.953125 205.621094 35.921875 203.753906 C 37.40625 202.351562 37.40625 202.351562 39.308594 201.765625 C 41.492188 201.53125 41.492188 201.53125 43.335938 202.050781 L 45.214844 202.917969 L 47.335938 203.871094 L 49.566406 204.90625 C 56.585938 208.042969 63.554688 210.757812 70.921875 212.976562 L 73.457031 213.902344 C 78.960938 215.128906 84.375 215.503906 89.820312 213.828125 C 92.359375 212.761719 94.820312 211.597656 97.285156 210.371094 C 103.3125 207.546875 109.214844 204.875 115.628906 203.066406 L 117.273438 202.601562 C 125.464844 200.40625 133.289062 199.617188 141.410156 202.390625 M 107.453125 215.890625 L 105.367188 216.648438 L 103.429688 217.375 L 101.6875 218.027344 L 100.351562 218.699219 L 99.535156 220.335938 C 102.925781 220.382812 106.3125 220.410156 109.703125 220.4375 C 110.65625 220.453125 111.605469 220.464844 112.585938 220.476562 C 117.890625 220.507812 123.097656 220.515625 128.148438 218.699219 C 130.222656 217.503906 131.378906 216.414062 133.050781 214.613281 C 133.832031 212.429688 133.832031 212.429688 133.871094 210.523438 C 124.632812 209.972656 116.027344 212.769531 107.453125 215.890625 M 47.214844 215.429688 C 47.484375 218.246094 47.996094 220.265625 49.308594 222.789062 C 52.621094 226.863281 55.824219 229.335938 60.734375 231.304688 C 76.445312 236.84375 92.105469 238.066406 108.527344 235.050781 C 111.59375 234.148438 114.589844 233.058594 117.519531 231.78125 L 117.519531 230.960938 L 115.570312 230.828125 C 93.1875 229.199219 72.394531 224.738281 51.296875 216.847656 C 49.945312 216.351562 48.582031 215.886719 47.214844 215.429688 M 63.566406 242.40625 C 66.601562 246.132812 70.683594 247.902344 75.011719 249.765625 C 82.011719 252.136719 89.886719 252.992188 97.195312 251.710938 C 103.894531 250.285156 110.242188 248.015625 115.886719 244.042969 L 116.703125 242.40625 L 113.578125 243.125 C 98.15625 246.46875 83.859375 246.726562 68.46875 243.226562 C 66.835938 242.9375 65.203125 242.667969 63.566406 242.40625 " fill-opacity="1" fill-rule="nonzero"/><path fill="#31b85c" d="M 228.699219 172.921875 C 247.503906 172.921875 247.503906 172.921875 255.675781 175.371094 C 258.613281 177.730469 260.082031 179.25 261.707031 182.578125 C 262.375 185.980469 262.707031 189.089844 262.21875 192.539062 C 261.003906 195.832031 259.25 198.625 257.3125 201.53125 L 263.035156 218.699219 L 263.851562 172.921875 C 281.835938 172.921875 281.835938 172.921875 289.195312 174.554688 C 291.855469 176.34375 293.589844 177.78125 295.222656 180.535156 C 295.910156 183.484375 296.128906 186.273438 295.734375 189.269531 C 294.605469 191.992188 293.28125 194.179688 291.648438 196.628906 L 293.996094 198.363281 C 295.867188 199.9375 296.589844 200.792969 297.675781 203.066406 C 298.5 207.179688 298.519531 210.273438 297.269531 214.304688 C 295.488281 217.507812 293.863281 219.113281 290.828125 221.152344 C 286.117188 222.878906 281.84375 223.003906 276.859375 222.945312 L 274.519531 222.941406 C 272.070312 222.933594 269.621094 222.910156 267.171875 222.890625 C 265.503906 222.882812 263.839844 222.875 262.171875 222.867188 C 258.097656 222.847656 254.027344 222.820312 249.953125 222.789062 C 247.746094 217.390625 245.835938 212.046875 244.230469 206.4375 L 243.414062 222.789062 L 228.699219 222.789062 Z M 243.414062 186.816406 L 243.414062 194.175781 L 246.683594 193.359375 L 247.503906 192.539062 C 247.707031 190.53125 247.707031 190.53125 247.503906 188.453125 L 245.867188 186.816406 Z M 278.566406 187.636719 L 278.566406 190.90625 L 282.65625 190.90625 L 282.65625 187.636719 Z M 278.566406 203.167969 L 278.566406 208.074219 L 284.289062 207.253906 L 283.472656 203.167969 Z M 278.566406 203.167969 " fill-opacity="1" fill-rule="nonzero"/><path fill="#35ba60" d="M 338.246094 172.921875 C 340.167969 172.859375 342.09375 172.851562 344.019531 172.871094 L 347.214844 172.890625 L 349.691406 172.921875 C 350.441406 174.402344 351.191406 175.882812 351.9375 177.367188 L 353.203125 179.867188 C 354.839844 183.234375 356.34375 186.664062 357.863281 190.085938 L 358.683594 172.921875 L 370.945312 172.921875 L 370.945312 222.789062 L 358.683594 222.789062 C 355.804688 217.101562 353.097656 211.453125 350.507812 205.621094 L 349.691406 222.789062 L 337.425781 222.789062 C 337.410156 216.40625 337.394531 210.027344 337.386719 203.644531 C 337.382812 200.679688 337.375 197.71875 337.367188 194.753906 C 337.355469 191.898438 337.351562 189.042969 337.351562 186.183594 C 337.347656 184.558594 337.34375 182.933594 337.335938 181.308594 L 337.335938 178.332031 L 337.328125 175.699219 L 337.425781 173.738281 Z M 338.246094 172.921875 " fill-opacity="1" fill-rule="nonzero"/><path fill="#30b85c" d="M 193.546875 172.921875 L 208.261719 172.921875 L 209.078125 207.253906 L 211.53125 207.253906 L 212.351562 172.921875 L 227.066406 172.921875 C 227.125 178.402344 227.171875 183.886719 227.199219 189.371094 C 227.210938 191.234375 227.226562 193.097656 227.25 194.964844 C 227.28125 197.648438 227.292969 200.332031 227.304688 203.015625 C 227.316406 203.847656 227.328125 204.675781 227.34375 205.53125 C 227.34375 210.300781 226.9375 213.679688 224.613281 217.882812 C 222.484375 220.164062 220.945312 221.484375 218.070312 222.613281 C 213.136719 223.945312 208.351562 223.71875 203.355469 222.789062 C 200.230469 221.6875 198.324219 220.371094 196.152344 217.933594 C 194.53125 215.664062 194.003906 214.769531 193.546875 212.160156 C 193.480469 210.835938 193.449219 209.511719 193.453125 208.1875 L 193.453125 205.804688 L 193.46875 203.257812 L 193.472656 200.632812 C 193.476562 197.867188 193.484375 195.101562 193.496094 192.335938 C 193.5 190.460938 193.503906 188.585938 193.507812 186.710938 C 193.515625 182.113281 193.53125 177.515625 193.546875 172.921875 " fill-opacity="1" fill-rule="nonzero"/><path fill="#30b85b" d="M 308.816406 172.921875 L 323.53125 172.921875 C 326.433594 181.972656 328.851562 191.125 331.238281 200.324219 C 331.917969 202.9375 332.597656 205.550781 333.28125 208.160156 C 333.714844 209.820312 334.148438 211.480469 334.578125 213.140625 L 335.199219 215.507812 L 335.761719 217.683594 L 336.261719 219.601562 C 336.609375 221.152344 336.609375 221.152344 336.609375 222.789062 L 321.894531 222.789062 L 321.078125 217.882812 L 312.085938 218.699219 L 310.449219 222.789062 L 296.550781 222.789062 C 297.058594 218.75 297.492188 215.355469 298.511719 211.527344 L 299.207031 208.902344 L 299.953125 206.132812 L 300.71875 203.246094 C 301.523438 200.21875 302.332031 197.199219 303.144531 194.175781 L 304.785156 188.003906 C 306.125 182.972656 307.46875 177.945312 308.816406 172.921875 M 316.171875 198.261719 C 314.894531 201.855469 314.894531 201.855469 314.539062 205.621094 L 317.808594 205.621094 L 316.988281 198.261719 Z M 316.171875 198.261719 " fill-opacity="1" fill-rule="nonzero"/><path fill="#fcd635" d="M 197.636719 232.597656 L 208.261719 232.597656 L 209.457031 235.164062 L 211.019531 238.523438 L 211.804688 240.214844 L 212.574219 241.859375 L 213.273438 243.363281 C 214.035156 244.964844 214.828125 246.546875 215.621094 248.128906 L 216.4375 232.597656 L 227.066406 232.597656 L 227.066406 277.558594 L 216.4375 277.558594 C 215.515625 275.738281 214.597656 273.917969 213.679688 272.09375 L 212.894531 270.542969 C 211.480469 267.730469 210.25 264.957031 209.078125 262.027344 L 208.261719 277.558594 L 197.636719 277.558594 Z M 197.636719 232.597656 " fill-opacity="1" fill-rule="nonzero"/><path fill="#fcd83c" d="M 228.699219 232.597656 L 254.859375 232.597656 L 254.859375 245.679688 L 242.597656 246.496094 L 242.597656 248.128906 L 252.40625 248.949219 L 252.40625 262.027344 L 241.78125 262.027344 L 241.78125 264.480469 L 254.859375 264.480469 L 254.859375 277.558594 L 228.699219 277.558594 Z M 228.699219 232.597656 " fill-opacity="1" fill-rule="nonzero"/><path fill="#fcd737" d="M 268.945312 232.519531 L 270.933594 232.527344 L 273 232.546875 L 275.089844 232.558594 C 276.796875 232.570312 278.5 232.582031 280.203125 232.597656 C 281.132812 235.394531 281.101562 237.574219 281.070312 240.519531 L 281.046875 243.4375 L 281.019531 245.679688 L 274.480469 246.496094 L 273.664062 249.765625 L 275.214844 251.082031 L 277.238281 252.832031 L 279.25 254.554688 C 280.960938 256.246094 281.863281 257.328125 282.65625 259.574219 C 283.132812 263.6875 283.039062 267.457031 281.683594 271.378906 C 280.039062 273.703125 278.492188 275.175781 276.113281 276.742188 C 273.742188 277.5 271.609375 277.65625 269.128906 277.640625 L 267.035156 277.632812 L 264.875 277.609375 L 262.675781 277.601562 C 260.886719 277.589844 259.097656 277.574219 257.3125 277.558594 L 257.3125 264.480469 L 267.121094 263.664062 C 266.75 261.429688 266.75 261.429688 265.488281 258.757812 C 263.898438 257 262.226562 255.394531 260.480469 253.796875 C 258.917969 252.1875 258.082031 251.042969 257.3125 248.949219 C 256.855469 244.96875 256.785156 241.222656 258.335938 237.503906 C 259.796875 235.828125 261.148438 234.59375 263.035156 233.414062 C 265.296875 232.660156 266.617188 232.5 268.945312 232.519531 " fill-opacity="1" fill-rule="nonzero"/><path fill="#fcd738" d="M 282.65625 232.597656 L 311.265625 232.597656 L 311.265625 245.679688 L 303.09375 245.679688 L 303.09375 277.558594 L 290.011719 277.558594 L 290.011719 245.679688 L 282.65625 245.679688 Z M 282.65625 232.597656 " fill-opacity="1" fill-rule="nonzero"/></svg>